<?xml version="1.0" encoding="iso-8859-1"?>
<!-- Generator: Adobe Illustrator 18.0.0, SVG Export Plug-In . SVG Version: 6.00 Build 0)  -->
<!DOCTYPE svg PUBLIC "-//W3C//DTD SVG 1.1//EN" "http://www.w3.org/Graphics/SVG/1.1/DTD/svg11.dtd">
<svg xmlns="http://www.w3.org/2000/svg" xmlns:xlink="http://www.w3.org/1999/xlink" version="1.1" id="Capa_1" x="0px" y="0px" viewBox="0 0 493.988 493.988" style="enable-background:new 0 0 493.988 493.988;" xml:space="preserve" width="512px" height="512px">
<g>
	<path d="M201.72,327.485c13.557,0,24.503-10.995,24.503-24.536c0-13.557-10.946-24.535-24.503-24.535   c-13.573,0-24.552,10.978-24.552,24.535C177.168,316.49,188.146,327.485,201.72,327.485z" fill="#D80027"/>
	<path d="M292.306,327.485c13.54,0,24.521-10.995,24.521-24.536c0-13.557-10.98-24.535-24.521-24.535   c-13.591,0-24.568,10.978-24.568,24.535C267.737,316.49,278.715,327.485,292.306,327.485z" fill="#D80027"/>
	<path d="M309.414,381.997c-4.638,0-8.4,3.755-8.4,8.393c0,14.562-11.855,26.408-26.416,26.408c-7.371,0-14.179-3.232-19.202-8.714   v-19.94l31.819-31.816c1.457-1.443,1.879-3.625,1.086-5.507c-0.779-1.896-2.627-3.128-4.672-3.128h-73.25   c-2.059,0-3.908,1.232-4.686,3.128c-0.779,1.881-0.357,4.064,1.086,5.507l31.816,31.816v19.948   c-5.006,5.475-11.812,8.706-19.199,8.706c-14.563,0-26.401-11.847-26.401-26.408c0-4.638-3.761-8.393-8.399-8.393   c-4.638,0-8.4,3.755-8.4,8.393c0,23.821,19.379,43.2,43.201,43.2c10.249,0,19.913-3.6,27.6-10.095   c7.688,6.495,17.368,10.095,27.602,10.095c23.822,0,43.216-19.379,43.216-43.2C317.814,385.751,314.053,381.997,309.414,381.997z" fill="#D80027"/>
	<path d="M418.551,193.568c28.834-80.571,34.834-175.033-10.815-191.396C403.713,0.729,399.447,0,395.054,0   c-38.789,0-86.952,58.891-117.165,143.2c-6.275,17.539-10.995,35.627-14.789,53.507c-5.319-0.365-10.654-0.657-16.086-0.657   c-5.45,0-10.801,0.292-16.121,0.665c-3.795-17.888-8.512-35.97-14.772-53.515C185.909,58.891,137.713,0,98.94,0   c-4.395,0-8.676,0.729-12.698,2.172c-45.649,16.38-39.633,110.84-10.783,191.405c7.85,21.924,16.946,42.017,26.757,59.88   c-24.439,25.297-39.146,57.033-39.146,91.566c0,82.137,82.511,148.965,183.945,148.965c101.418,0,183.927-66.828,183.927-148.965   c0-34.533-14.725-66.285-39.163-91.574C401.573,235.577,410.703,215.493,418.551,193.568z M301.598,151.697   c28.006-78.138,70.314-126.504,93.456-126.504c1.508,0,2.886,0.226,4.183,0.698c19.444,6.964,27.181,70.898-4.394,159.189   c-6.778,18.909-14.417,36.073-22.46,51.26c-7.022-5.319-14.416-10.297-22.396-14.676c9.827-14.871,19.946-35.335,28.396-58.98   c18.195-50.797,21.779-96.001,8.011-100.932c-13.784-4.93-39.666,32.272-57.876,83.079c-8.142,22.702-13.152,44.019-15.18,61.395   c-8.336-2.61-16.914-4.776-25.752-6.405C290.928,184.835,295.484,168.766,301.598,151.697z M94.738,25.89   c1.299-0.472,2.678-0.698,4.201-0.698c23.157,0,65.465,48.366,93.456,126.504c6.098,17.069,10.686,33.146,14.026,48.124   c-8.837,1.629-17.399,3.794-25.702,6.396c-2.027-17.318-7.118-38.716-15.228-61.387c-18.211-50.807-44.126-88.008-57.894-83.079   c-13.782,4.931-10.167,50.135,7.996,100.932c8.497,23.718,18.648,44.07,28.492,58.94c-8.027,4.394-15.455,9.397-22.509,14.741   c-7.994-15.171-15.616-32.336-22.411-51.285C67.561,96.796,75.28,32.863,94.738,25.89z M247.014,460.404   c-82.899,0-150.36-51.764-150.36-115.382c0-63.625,67.461-115.38,150.36-115.38c82.897,0,150.326,51.755,150.326,115.38   C397.34,408.641,329.911,460.404,247.014,460.404z" fill="#D80027"/>
</g>
<g>
</g>
<g>
</g>
<g>
</g>
<g>
</g>
<g>
</g>
<g>
</g>
<g>
</g>
<g>
</g>
<g>
</g>
<g>
</g>
<g>
</g>
<g>
</g>
<g>
</g>
<g>
</g>
<g>
</g>
</svg>
