<?xml version="1.0" encoding="iso-8859-1"?>
<!-- Generator: Adobe Illustrator 19.0.0, SVG Export Plug-In . SVG Version: 6.00 Build 0)  -->
<svg version="1.1" id="Capa_1" xmlns="http://www.w3.org/2000/svg" xmlns:xlink="http://www.w3.org/1999/xlink" x="0px" y="0px"
	 viewBox="0 0 512 512" style="enable-background:new 0 0 512 512;" xml:space="preserve">
<g>
	<path style="fill:#F0F0F0;" d="M111.718,117.653c27.267-42.326-49.983-43.57-19.871,1.968L111.718,117.653z"/>
	<path style="fill:#F0F0F0;" d="M364.65,72.494c-27.267-42.326,49.983-43.57,19.871,1.968L364.65,72.494z"/>
</g>
<g>
	<path style="fill:#D9D9D9;" d="M97.636,118.231c-15.666-47.849-65.331,11.333-11,16.666L97.636,118.231z"/>
	<path style="fill:#D9D9D9;" d="M378.732,73.072c15.666-47.849,65.331,11.333,11,16.666L378.732,73.072z"/>
</g>
<path style="fill:#7A6154;" d="M272.179,84.448c0,0-117.308,31.162-137.521,106.961v0.001l0.055,0.035l8.156,32.765l129.165,57.378
	l135.052-31.208C464.346,128.711,278.314,140.877,272.179,84.448z"/>
<path style="fill:#6B554A;" d="M156.64,204.335c13.635-51.131,79.643-87.828,121.166-106.3c-3.102-4.081-5.081-8.56-5.628-13.586
	c0,0-117.308,31.162-137.521,106.961v0.001l0.055,0.035l8.156,32.765L156.64,204.335z"/>
<path style="fill:#A18576;" d="M134.657,191.41c0,0-81.158,38.742-58.266,101.067l-4.07,68.985l188.819,10.305l199.368-9.9
	C553.884,202.121,170.03,240.259,134.657,191.41z"/>
<g>
	<path style="fill:#7A6154;" d="M106.643,325.117l-2.174-13.919c-16.332-44.466,26.359-86.449,52.171-106.863
		c-10.577-3.56-18.238-7.754-21.983-12.925c0,0-81.158,38.742-58.266,101.067l-1.544,26.18L106.643,325.117z"/>
	<path style="fill:#7A6154;" d="M478.692,371.238C376.383,308.581,90.83,341.831,76.391,292.476c0,0-85.071,58.731-66.131,137.99
		c5.775,24.166,27.705,41.004,52.552,41.004h387.34C504.693,471.47,525.203,399.723,478.692,371.238z"/>
</g>
<path style="fill:#6B554A;" d="M60.259,430.467c-12.528-52.424,20.445-95.86,44.211-119.268
	c-15.569-4.475-25.653-10.432-28.078-18.722c0,0-85.07,58.731-66.131,137.99c5.775,24.166,27.705,41.004,52.552,41.004h49.998
	C87.964,471.47,66.033,454.634,60.259,430.467z"/>
<path d="M163.704,385.898c-4.142,0-7.5,3.358-7.5,7.5v16.695c0,4.142,3.358,7.5,7.5,7.5s7.5-3.358,7.5-7.5v-16.695
	C171.204,389.256,167.846,385.898,163.704,385.898z"/>
<path d="M348.205,385.898c-4.142,0-7.5,3.358-7.5,7.5v16.695c0,4.142,3.358,7.5,7.5,7.5c4.142,0,7.5-3.358,7.5-7.5v-16.695
	C355.705,389.256,352.347,385.898,348.205,385.898z"/>
<path d="M283.659,403.285c-3.118-2.726-7.856-2.409-10.583,0.71c-4.172,4.773-10.414,7.51-17.122,7.51
	c-6.71,0-12.951-2.737-17.123-7.51c-2.726-3.119-7.464-3.438-10.583-0.71c-3.119,2.726-3.437,7.464-0.71,10.583
	c7.021,8.032,17.377,12.638,28.416,12.638c11.038,0,21.394-4.606,28.415-12.638C287.096,410.749,286.778,406.011,283.659,403.285z"
	/>
<path d="M348.205,87.569c0,12.61,10.223,22.832,22.832,22.832c9.229,0,17.172-5.478,20.772-13.357
	c9.61-1.125,17.119-3.94,22.325-8.381c5.361-4.572,8.131-10.796,7.802-17.524c-0.622-12.709-11.973-23.866-24.402-24.112
	c-1.027-2.646-2.563-5.032-4.587-7.084c-4.332-4.392-10.712-6.911-17.504-6.911c-9.31,0-17.588,4.577-21.606,11.943
	c-2.907,5.332-4.742,13.984,1.356,26.162C350.888,75.29,348.205,81.114,348.205,87.569z M406.956,71.872
	c0.228,4.655-4.781,8.193-13.61,9.795l-0.438-0.664c-1.083-3.613-3.035-6.849-5.616-9.466c0.587-1.338,1.243-2.649,2.024-3.885
	c1.713-2.711,4.327-5.637,7.802-5.637C401.751,62.015,406.717,66.989,406.956,71.872z M367.006,52.156
	c2.697-4.945,11.458-5.54,15.262-1.681c0.444,0.45,0.804,0.957,1.081,1.524c-0.023,0.019-0.045,0.038-0.068,0.057
	c-3.234,2.606-6.627,6.637-9.463,12.854c-0.912-0.111-1.839-0.175-2.782-0.175c-0.74,0-1.472,0.039-2.195,0.107
	C366.127,59.553,365.434,55.039,367.006,52.156z"/>
<path d="M482.563,364.841c-3.637-2.228-7.528-4.357-11.665-6.4c13.217-25.626,15.182-48.228,5.813-67.268
	c-9.946-20.209-31.547-34.535-59.55-45.178c9.559-23.311,10.89-43.239,4.091-60.722c-12.658-32.551-51.036-48.291-84.897-62.179
	c-28.246-11.584-54.926-22.526-56.767-39.458c-0.236-2.174-1.41-4.136-3.212-5.374c-1.803-1.238-4.058-1.625-6.169-1.064
	c-1.233,0.328-30.562,8.221-62.83,25.71c-42.099,22.819-69.357,51.563-79.075,83.307c-6.572,3.509-22.463,12.763-36.72,27.058
	c-23.433,23.497-31.672,49.801-24.037,76.398c-7.489,5.806-22.985,18.862-37.315,37.505C4.074,361.207-5.369,397.526,2.918,432.208
	c6.58,27.531,31.189,46.759,59.846,46.759h387.341c28.385,0,51.713-17.69,59.431-45.069
	C517.208,406.681,506.621,379.575,482.563,364.841z M495.099,429.829c-4.439,15.748-18.886,34.138-44.993,34.138H62.765
	c-21.687,0-40.298-14.493-45.257-35.247c-7.276-30.451,0.923-61.433,24.371-92.085c11.817-15.448,24.769-26.958,32.299-33.062
	c0.042,0.047,0.091,0.091,0.133,0.138c7.969,8.878,19.805,12.381,30.903,15.506c0.017,0.005,0.034,0.01,0.051,0.014
	c42.101,11.267,86.296,11.666,129.522,14.51c46.905,3.085,95.408,6.276,139.718,13.265c3.674,0.579,7.469-1.928,8.407-5.522
	c1.104-4.231-1.774-8.616-6.089-9.296c-44.965-7.094-96.014-10.452-141.053-13.415c-40.441-2.66-78.639-5.173-106.876-9.909
	c-9.69-1.625-19.369-3.608-28.647-6.898c-6.409-2.273-14.302-5.102-16.864-12.08c-8.363-22.769-2.117-44.896,18.564-65.768
	c11.426-11.531,24.382-19.602,31.17-23.428c0.03,0.025,0.902,0.736,1.325,1.061c6.129,4.717,13.435,7.628,20.729,10.011
	c6.684,2.19,13.526,3.897,20.395,5.389c4.047,0.881,8.042-1.689,8.921-5.737c0.866-3.984-1.755-8.057-5.737-8.922
	c-0.801-0.174-1.584-0.348-2.353-0.522c-8.486-1.918-16.93-4.171-24.925-7.647c-3.967-1.757-6.656-3.42-8.462-4.914
	c18.531-57.555,99.046-87.546,123.79-95.519c7.975,20.158,35.218,31.332,63.86,43.08c31.07,12.743,66.285,27.185,76.609,53.737
	c5.41,13.914,4.008,30.436-4.305,50.36c-63.124-20.019-129.955-23.286-195.03-33.316c-4.093-0.631-7.924,2.177-8.555,6.271
	c-0.624,4.044,2.234,7.934,6.271,8.555c40.195,6.186,80.705,10.123,120.84,16.722c26.356,4.334,52.795,9.484,78.108,18.171
	c0.028,0.01,0.058,0.012,0.086,0.022c28.1,9.622,49.772,22.435,58.564,40.302c7.354,14.943,5.369,32.841-6.088,54.571
	c-5.683-2.259-11.459-4.292-17.297-6.11c-10.856-3.387-21.97-6.34-33.126-8.571c-4.061-0.867-8.188,1.599-9.07,5.733
	c-0.879,4.123,2.006,8.094,6.025,8.955c3.007,0.643,6.022,1.286,9.006,2.032c21.415,5.08,43.131,11.656,62.024,23.226
	C496.812,391.157,499.504,414.203,495.099,429.829z"/>
<path d="M122.437,90.135c-7.441-13.646-28.352-15.939-39.11-5.034c-2.024,2.052-3.561,4.439-4.587,7.084
	c-12.43,0.247-23.779,11.405-24.401,24.112c-0.33,6.729,2.441,12.954,7.802,17.525c5.207,4.441,12.717,7.255,22.325,8.381
	c3.6,7.879,11.544,13.357,20.772,13.357c12.611,0,22.832-10.223,22.832-22.832c0-6.454-2.682-12.279-6.988-16.431
	C127.179,104.118,125.343,95.467,122.437,90.135z M69.319,117.032c0.239-4.883,5.205-9.859,9.839-9.859
	c2.861,0,5.222,2.095,6.846,4.251c0.726,0.964,1.354,1.997,1.923,3.061c0.367,0.689,0.717,1.435,1.057,2.21
	c-2.581,2.617-4.533,5.853-5.617,9.467l-0.438,0.664C74.1,125.225,69.091,121.687,69.319,117.032z M105.237,109.895
	c-0.942,0-1.869,0.064-2.782,0.175c-2.828-6.199-6.21-10.225-9.437-12.832c-0.032-0.026-0.063-0.054-0.095-0.08
	c0.277-0.567,0.637-1.074,1.082-1.524c3.802-3.852,12.562-3.27,15.262,1.682c1.572,2.883,0.879,7.396-1.836,12.687
	C106.709,109.933,105.978,109.895,105.237,109.895z"/>
<g>
</g>
<g>
</g>
<g>
</g>
<g>
</g>
<g>
</g>
<g>
</g>
<g>
</g>
<g>
</g>
<g>
</g>
<g>
</g>
<g>
</g>
<g>
</g>
<g>
</g>
<g>
</g>
<g>
</g>
</svg>
