<?xml version="1.0" encoding="iso-8859-1"?>
<!-- Generator: Adobe Illustrator 19.0.0, SVG Export Plug-In . SVG Version: 6.00 Build 0)  -->
<svg version="1.1" id="Capa_1" xmlns="http://www.w3.org/2000/svg" xmlns:xlink="http://www.w3.org/1999/xlink" x="0px" y="0px"
	 viewBox="0 0 512 512" style="enable-background:new 0 0 512 512;" xml:space="preserve">
<g>
	<path style="fill:#F0F0F0;" d="M107.357,113.473c28.091-43.604-51.494-44.886-20.472,2.027L107.357,113.473z"/>
	<path style="fill:#F0F0F0;" d="M367.932,66.95c-28.091-43.604,51.494-44.886,20.472,2.027L367.932,66.95z"/>
</g>
<g>
	<path style="fill:#D9D9D9;" d="M92.85,114.068c-16.14-49.295-67.305,11.675-11.332,17.17L92.85,114.068z"/>
	<path style="fill:#D9D9D9;" d="M382.439,67.544c16.14-49.295,67.305,11.675,11.332,17.17L382.439,67.544z"/>
</g>
<path style="fill:#7A6154;" d="M272.666,79.265c0,0-120.853,32.104-141.677,110.193v0.001l0.057,0.036l8.402,33.755l133.067,59.112
	l139.132-32.151C470.64,124.865,278.987,137.398,272.666,79.265z"/>
<path style="fill:#6B554A;" d="M153.637,202.773c14.047-52.676,82.05-90.482,124.827-109.512c-3.196-4.204-5.234-8.818-5.798-13.996
	c0,0-120.853,32.104-141.677,110.193v0.001l0.057,0.036l8.402,33.755L153.637,202.773z"/>
<path style="fill:#A18576;" d="M130.99,189.458c0,0-83.611,39.912-60.027,104.12l-4.193,71.069l194.524,10.616l205.392-10.199
	C562.884,200.492,167.431,239.782,130.99,189.458z"/>
<g>
	<path style="fill:#7A6154;" d="M102.129,327.206l-2.24-14.339c-16.826-45.809,27.156-89.061,53.748-110.092
		c-10.896-3.667-18.789-7.988-22.647-13.315c0,0-83.611,39.912-60.027,104.12l-1.591,26.971L102.129,327.206z"/>
	<path style="fill:#7A6154;" d="M485.419,374.721c-105.4-64.55-399.581-30.296-414.456-81.142c0,0-87.642,60.506-68.129,142.16
		c5.949,24.896,28.542,42.243,54.14,42.243h399.044C512.206,477.981,533.336,404.066,485.419,374.721z"/>
</g>
<path style="fill:#6B554A;" d="M54.343,435.738c-12.906-54.008,21.063-98.756,45.546-122.872
	c-16.04-4.61-26.428-10.747-28.926-19.288c0,0-87.641,60.506-68.129,142.16c5.949,24.896,28.542,42.243,54.14,42.243h51.509
	C82.885,477.981,60.292,460.635,54.343,435.738z"/>
<g>
	<path style="fill:#3B484A;" d="M160.962,422.479c-4.267,0-7.726-3.459-7.726-7.726v-17.2c0-4.267,3.459-7.726,7.726-7.726
		c4.267,0,7.726,3.459,7.726,7.726v17.2C168.688,419.02,165.229,422.479,160.962,422.479z"/>
	<path style="fill:#3B484A;" d="M351.038,422.479c-4.267,0-7.726-3.459-7.726-7.726v-17.2c0-4.267,3.459-7.726,7.726-7.726
		c4.267,0,7.726,3.459,7.726,7.726v17.2C358.765,419.02,355.305,422.479,351.038,422.479z"/>
	<path style="fill:#3B484A;" d="M256,431.66c-11.372,0-22.042-4.745-29.275-13.019c-2.808-3.213-2.481-8.094,0.732-10.902
		s8.093-2.481,10.902,0.732c4.298,4.917,10.727,7.737,17.64,7.737s13.342-2.82,17.64-7.737c2.808-3.213,7.689-3.542,10.902-0.731
		c3.213,2.808,3.541,7.689,0.731,10.902C278.042,426.914,267.371,431.66,256,431.66z"/>
	<circle style="fill:#3B484A;" cx="100.731" cy="129.009" r="23.522"/>
	<circle style="fill:#3B484A;" cx="374.563" cy="82.486" r="23.522"/>
</g>
<g>
</g>
<g>
</g>
<g>
</g>
<g>
</g>
<g>
</g>
<g>
</g>
<g>
</g>
<g>
</g>
<g>
</g>
<g>
</g>
<g>
</g>
<g>
</g>
<g>
</g>
<g>
</g>
<g>
</g>
</svg>
